<svg xmlns="http://www.w3.org/2000/svg" id="Layer_1" data-name="Layer 1" viewBox="0 0 400 400" width="400" height="400"><g id="Page-1">
    <g id="OnlyRaab-Pink-Icon">
      <g id="Layer0_0_MEMBER_0_FILL" data-name="Layer0 0 MEMBER 0 FILL">
        <path id="Shape" d="M232.67,112.06c-11.57-11.57-24.82-20.5-39.75-26.8-15.5-6.57-31.72-9.85-48.65-9.85s-33.15,3.28-48.65,9.85c-14.93,6.3-28.17,15.23-39.7,26.8-11.57,11.53-20.5,24.77-26.8,39.7-6.57,15.5-9.85,31.72-9.85,48.65s3.28,33.15,9.85,48.65c6.3,14.93,15.23,28.18,26.8,39.75,11.53,11.53,24.77,20.45,39.7,26.75,15.5,6.57,31.72,9.85,48.65,9.85s33.15-3.28,48.65-9.85c14.93-6.3,28.18-15.22,39.75-26.75,11.53-11.57,20.45-24.82,26.75-39.75,6.57-15.5,9.85-31.72,9.85-48.65s-3.28-33.15-9.85-48.65c-6.3-14.93-15.22-28.17-26.75-39.7M117.78,173.91c7.33-7.33,16.17-11,26.5-11s19.17,3.67,26.5,11,11,16.17,11,26.5-3.65,19.2-10.95,26.5c-7.3,7.33-16.12,11-26.45,11h-.1c-10.33,0-19.17-3.67-26.5-11-7.33-7.3-11-16.13-11-26.5s3.67-19.17,11-26.5Z" style="fill: #f6c;"></path>
      </g>
      <g id="Group">
        <g id="Layer0_1_MEMBER_0_FILL" data-name="Layer0 1 MEMBER 0 FILL">
          <path id="Shape-2" data-name="Shape" d="M355.12,98.02c-8.08-8.09-17.36-14.33-27.82-18.73-10.85-4.58-22.2-6.88-34.07-6.88s-23.22,2.3-34.07,6.88c-10.47,4.4-19.72,10.64-27.77,18.73-8.08,8.08-14.35,17.36-18.78,27.83-4.58,10.85-6.88,22.2-6.88,34.07s2.3,23.16,6.88,34.01c4.43,10.46,10.7,19.74,18.78,27.82,8.05,8.09,17.3,14.33,27.77,18.73,10.85,4.63,22.2,6.94,34.07,6.94s23.22-2.31,34.07-6.94c10.46-4.4,19.74-10.64,27.82-18.73,8.05-8.08,14.29-17.36,18.73-27.82,4.58-10.85,6.88-22.19,6.88-34.01s-2.3-23.22-6.88-34.07c-4.43-10.47-10.68-19.74-18.73-27.83M306.31,146.84c3.62,3.62,5.43,7.98,5.43,13.07s-1.79,9.46-5.39,13.07c-3.62,3.62-7.98,5.43-13.07,5.43s-9.5-1.81-13.11-5.43c-3.62-3.62-5.43-7.98-5.43-13.07s1.81-9.46,5.43-13.07c3.62-3.62,7.98-5.43,13.07-5.43s9.46,1.81,13.07,5.43Z" style="fill: #c14e9b;"></path>
        </g>
        <g id="Layer0_2_MEMBER_0_MEMBER_0_FILL" data-name="Layer0 2 MEMBER 0 MEMBER 0 FILL">
          <path id="Path" d="M234.83,120.06c-3.48-6.59-6.58-11.57-9.77-14.95-7.27,10.94-14,22.56-19.73,34.85-5.73,12.3-13.61,34.36-23.65,66.2l-37.5,119.2c24.9,0,47.77-6.85,68.6-20.55,4.39-2.89,8.54-5.99,12.45-9.3,3.91-3.31,22.02-16.39,37.01-49.84,9.99-22.3,12.17-35.47,6.54-39.51-10.03-31.83-18.97-55.87-26.8-72.1-2.8-5.77-5.18-10.43-7.15-14Z" style="fill: #c14e9b;"></path>
          <path id="Path-Copy" d="M325.19,212.24l49.75,114.63c-24.76,2.6-48.22-1.82-70.37-13.27-4.67-2.42-9.12-5.06-13.35-7.95-4.23-2.88-23.61-14-42.02-45.69-12.27-21.13-15.81-34-10.63-38.61,6.65-32.7,73.31-39.72,86.62-9.1Z" style="fill: #c14e9b;"></path>
        </g>
      </g>
    </g>
  </g></svg>